<svg xmlns="http://www.w3.org/2000/svg" width="880" height="462" viewBox="0 0 880 462" role="img" font-family="system-ui,-apple-system,'Segoe UI',Roboto,sans-serif">
<title>Commit analytics for Eric Kang</title>
<desc>2,607 commits authored all-time, 1,808 in the last 12 months, across 93 repositories (70 private) in 6 accounts. Top language Python at 42.7 percent.</desc>
<rect width="880" height="462" rx="8" fill="#ffffff"/>
<text x="28" y="40" font-size="17" font-weight="600" fill="#0b0b0b">Commit analytics</text>
<text x="852" y="40" font-size="11.5" text-anchor="end" fill="#898781">updated 2026-08-02</text>
<line x1="28" y1="58" x2="852" y2="58" stroke="#e1e0d9"/>
<text x="28" y="108" font-size="33" font-weight="650" fill="#0b0b0b">2,607</text>
<text x="28" y="128" font-size="11.5" fill="#898781">commits authored, all-time</text>
<text x="234" y="108" font-size="33" font-weight="650" fill="#0b0b0b">1,808</text>
<text x="234" y="128" font-size="11.5" fill="#898781">in the last 12 months</text>
<text x="440" y="108" font-size="33" font-weight="650" fill="#0b0b0b">93</text>
<text x="440" y="128" font-size="11.5" fill="#898781">repositories contributed to</text>
<text x="646" y="108" font-size="33" font-weight="650" fill="#0b0b0b">70</text>
<text x="646" y="128" font-size="11.5" fill="#898781">of them private</text>
<line x1="28" y1="152" x2="852" y2="152" stroke="#e1e0d9"/>
<text x="28" y="180" font-size="13" font-weight="600" fill="#52514e">Where the commits go</text>
<text x="28" y="198" font-size="11" fill="#898781">authored commits per account, all-time</text>
<text x="512" y="180" font-size="13" font-weight="600" fill="#52514e">Language mix</text>
<text x="512" y="198" font-size="11" fill="#898781">repos weighted by commits authored</text>
<clipPath id="bars"><rect x="164" y="150" width="880" height="462"/></clipPath>
<text x="28" y="240" font-size="12" fill="#52514e">Ladiate</text>
<rect x="164" y="230" width="156" height="12" rx="4" fill="#eceef1"/>
<g clip-path="url(#bars)"><rect x="160" y="230" width="160.0" height="12" rx="4" fill="#2a78d6"><animate attributeName="width" values="4;160.0" dur="0.9s" begin="0.00s" fill="freeze" calcMode="spline" keyTimes="0;1" keySplines="0.22 0.9 0.3 1"/></rect></g>
<text x="372" y="240" font-size="12" text-anchor="end" font-weight="600" fill="#0b0b0b" style="font-variant-numeric:tabular-nums">939</text>
<text x="468" y="240" font-size="11" text-anchor="end" fill="#898781">924 recent</text>
<text x="28" y="270" font-size="12" fill="#52514e">VNE-MedTech</text>
<rect x="164" y="260" width="156" height="12" rx="4" fill="#eceef1"/>
<g clip-path="url(#bars)"><rect x="160" y="260" width="141.9" height="12" rx="4" fill="#2a78d6"><animate attributeName="width" values="4;141.9" dur="0.9s" begin="0.08s" fill="freeze" calcMode="spline" keyTimes="0;1" keySplines="0.22 0.9 0.3 1"/></rect></g>
<text x="372" y="270" font-size="12" text-anchor="end" font-weight="600" fill="#0b0b0b" style="font-variant-numeric:tabular-nums">830</text>
<text x="468" y="270" font-size="11" text-anchor="end" fill="#898781">830 recent</text>
<text x="28" y="300" font-size="12" fill="#52514e">Claw For Humanity</text>
<rect x="164" y="290" width="156" height="12" rx="4" fill="#eceef1"/>
<g clip-path="url(#bars)"><rect x="160" y="290" width="81.6" height="12" rx="4" fill="#2a78d6"><animate attributeName="width" values="4;81.6" dur="0.9s" begin="0.16s" fill="freeze" calcMode="spline" keyTimes="0;1" keySplines="0.22 0.9 0.3 1"/></rect></g>
<text x="372" y="300" font-size="12" text-anchor="end" font-weight="600" fill="#0b0b0b" style="font-variant-numeric:tabular-nums">467</text>
<text x="468" y="300" font-size="11" text-anchor="end" fill="#898781">dormant</text>
<text x="28" y="330" font-size="12" fill="#52514e">Garibaldi-Robotics</text>
<rect x="164" y="320" width="156" height="12" rx="4" fill="#eceef1"/>
<g clip-path="url(#bars)"><rect x="160" y="320" width="52.3" height="12" rx="4" fill="#2a78d6"><animate attributeName="width" values="4;52.3" dur="0.9s" begin="0.24s" fill="freeze" calcMode="spline" keyTimes="0;1" keySplines="0.22 0.9 0.3 1"/></rect></g>
<text x="372" y="330" font-size="12" text-anchor="end" font-weight="600" fill="#0b0b0b" style="font-variant-numeric:tabular-nums">291</text>
<text x="468" y="330" font-size="11" text-anchor="end" fill="#898781">dormant</text>
<text x="28" y="360" font-size="12" fill="#52514e">Personal</text>
<rect x="164" y="350" width="156" height="12" rx="4" fill="#eceef1"/>
<g clip-path="url(#bars)"><rect x="160" y="350" width="12.5" height="12" rx="4" fill="#2a78d6"><animate attributeName="width" values="4;12.5" dur="0.9s" begin="0.32s" fill="freeze" calcMode="spline" keyTimes="0;1" keySplines="0.22 0.9 0.3 1"/></rect></g>
<text x="372" y="360" font-size="12" text-anchor="end" font-weight="600" fill="#0b0b0b" style="font-variant-numeric:tabular-nums">51</text>
<text x="468" y="360" font-size="11" text-anchor="end" fill="#898781">25 recent</text>
<text x="28" y="390" font-size="12" fill="#52514e">Amusely Music</text>
<rect x="164" y="380" width="156" height="12" rx="4" fill="#eceef1"/>
<g clip-path="url(#bars)"><rect x="160" y="380" width="8.8" height="12" rx="4" fill="#2a78d6"><animate attributeName="width" values="4;8.8" dur="0.9s" begin="0.40s" fill="freeze" calcMode="spline" keyTimes="0;1" keySplines="0.22 0.9 0.3 1"/></rect></g>
<text x="372" y="390" font-size="12" text-anchor="end" font-weight="600" fill="#0b0b0b" style="font-variant-numeric:tabular-nums">29</text>
<text x="468" y="390" font-size="11" text-anchor="end" fill="#898781">29 recent</text>
<clipPath id="stack"><rect x="512" y="232" width="340" height="22" rx="4"/></clipPath>
<clipPath id="reveal"><rect x="512" y="232" width="340" height="22"><animate attributeName="width" values="0;340" dur="1.0s" begin="0.1s" fill="freeze" calcMode="spline" keyTimes="0;1" keySplines="0.22 0.9 0.3 1"/></rect></clipPath>
<g clip-path="url(#stack)"><g clip-path="url(#reveal)">
<rect x="512.0" y="232" width="143.2" height="22" fill="#2a78d6"/>
<rect x="657.2" y="232" width="91.2" height="22" fill="#eb6834"/>
<rect x="750.3" y="232" width="36.8" height="22" fill="#1baf7a"/>
<rect x="789.1" y="232" width="26.2" height="22" fill="#eda100"/>
<rect x="817.3" y="232" width="11.3" height="22" fill="#e87ba4"/>
<rect x="830.6" y="232" width="19.4" height="22" fill="#898781"/>
</g></g>
<rect x="512" y="271" width="10" height="10" rx="2.5" fill="#2a78d6"/>
<text x="530" y="280" font-size="11.5" fill="#52514e">Python</text>
<text x="800" y="280" font-size="11.5" text-anchor="end" fill="#898781" style="font-variant-numeric:tabular-nums">1,088</text>
<text x="852" y="280" font-size="11.5" text-anchor="end" fill="#52514e" font-weight="600" style="font-variant-numeric:tabular-nums">42.7%</text>
<rect x="512" y="293" width="10" height="10" rx="2.5" fill="#eb6834"/>
<text x="530" y="302" font-size="11.5" fill="#52514e">JavaScript</text>
<text x="800" y="302" font-size="11.5" text-anchor="end" fill="#898781" style="font-variant-numeric:tabular-nums">697</text>
<text x="852" y="302" font-size="11.5" text-anchor="end" fill="#52514e" font-weight="600" style="font-variant-numeric:tabular-nums">27.4%</text>
<rect x="512" y="315" width="10" height="10" rx="2.5" fill="#1baf7a"/>
<text x="530" y="324" font-size="11.5" fill="#52514e">Java</text>
<text x="800" y="324" font-size="11.5" text-anchor="end" fill="#898781" style="font-variant-numeric:tabular-nums">291</text>
<text x="852" y="324" font-size="11.5" text-anchor="end" fill="#52514e" font-weight="600" style="font-variant-numeric:tabular-nums">11.4%</text>
<rect x="512" y="337" width="10" height="10" rx="2.5" fill="#eda100"/>
<text x="530" y="346" font-size="11.5" fill="#52514e">TypeScript</text>
<text x="800" y="346" font-size="11.5" text-anchor="end" fill="#898781" style="font-variant-numeric:tabular-nums">212</text>
<text x="852" y="346" font-size="11.5" text-anchor="end" fill="#52514e" font-weight="600" style="font-variant-numeric:tabular-nums">8.3%</text>
<rect x="512" y="359" width="10" height="10" rx="2.5" fill="#e87ba4"/>
<text x="530" y="368" font-size="11.5" fill="#52514e">CSS</text>
<text x="800" y="368" font-size="11.5" text-anchor="end" fill="#898781" style="font-variant-numeric:tabular-nums">100</text>
<text x="852" y="368" font-size="11.5" text-anchor="end" fill="#52514e" font-weight="600" style="font-variant-numeric:tabular-nums">3.9%</text>
<rect x="512" y="381" width="10" height="10" rx="2.5" fill="#898781"/>
<text x="530" y="390" font-size="11.5" fill="#52514e">Other</text>
<text x="800" y="390" font-size="11.5" text-anchor="end" fill="#898781" style="font-variant-numeric:tabular-nums">160</text>
<text x="852" y="390" font-size="11.5" text-anchor="end" fill="#52514e" font-weight="600" style="font-variant-numeric:tabular-nums">6.3%</text>
<line x1="28" y1="418" x2="852" y2="418" stroke="#e1e0d9"/>
<text x="28" y="444" font-size="11.5" fill="#898781">1,938 contributions in the last year · 145 active days · peak 69 in a day</text>
<text x="852" y="444" font-size="11.5" text-anchor="end" fill="#898781">private repos aggregated by account</text>
</svg>