<svg xmlns="http://www.w3.org/2000/svg" width="880" height="684" viewBox="0 0 880 684" role="img" font-family="system-ui,-apple-system,'Segoe UI',Roboto,sans-serif">
<title>Commit analytics for Eric Changbean Kang</title>
<desc>3,229 commits authored all-time, 2,387 in the last 12 months, across 95 repositories (72 private) in 6 accounts. Top language Python at 44.7 percent.</desc>
<rect width="880" height="684" rx="8" fill="#ffffff"/>
<text x="28" y="40" font-size="17" font-weight="600" fill="#0b0b0b">Commit analytics</text>
<text x="852" y="40" font-size="11.5" text-anchor="end" fill="#898781">updated 2026-08-31</text>
<line x1="28" y1="58" x2="852" y2="58" stroke="#e1e0d9"/>
<text x="28" y="108" font-size="31" font-weight="650" fill="#0b0b0b">3,229</text>
<text x="28" y="128" font-size="11" fill="#898781">commits authored</text>
<text x="193" y="108" font-size="31" font-weight="650" fill="#0b0b0b">2,387</text>
<text x="193" y="128" font-size="11" fill="#898781">in the last 12 months</text>
<text x="358" y="108" font-size="31" font-weight="650" fill="#0b0b0b">165</text>
<text x="358" y="128" font-size="11" fill="#898781">pull requests opened</text>
<text x="522" y="108" font-size="31" font-weight="650" fill="#0b0b0b">95</text>
<text x="522" y="128" font-size="11" fill="#898781">repositories</text>
<text x="687" y="108" font-size="31" font-weight="650" fill="#0b0b0b">72</text>
<text x="687" y="128" font-size="11" fill="#898781">of them private</text>
<line x1="28" y1="152" x2="852" y2="152" stroke="#e1e0d9"/>
<text x="28" y="180" font-size="13" font-weight="600" fill="#52514e">Where the time goes</text>
<text x="28" y="198" font-size="11" fill="#898781">all-time, estimated at 1.5 h per commit</text>
<text x="512" y="180" font-size="13" font-weight="600" fill="#52514e">Language mix</text>
<text x="512" y="198" font-size="11" fill="#898781">repos weighted by commits authored</text>
<clipPath id="bars"><rect x="148" y="150" width="880" height="684"/></clipPath>
<text x="28" y="240" font-size="12" fill="#52514e">Ladiate</text>
<rect x="148" y="230" width="140" height="12" rx="4" fill="#eceef1"/>
<g clip-path="url(#bars)"><rect x="144" y="230" width="144.0" height="12" rx="4" fill="#2a78d6"><animate attributeName="width" values="4;144.0" dur="0.9s" begin="0.00s" fill="freeze" calcMode="spline" keyTimes="0;1" keySplines="0.22 0.9 0.3 1"/></rect></g>
<text x="340" y="240" font-size="12" text-anchor="end" font-weight="600" fill="#0b0b0b" style="font-variant-numeric:tabular-nums">1,960 h</text>
<text x="470" y="240" font-size="11" text-anchor="end" fill="#898781">1,307 commits</text>
<text x="28" y="270" font-size="12" fill="#52514e">VNE-MedTech</text>
<rect x="148" y="260" width="140" height="12" rx="4" fill="#eceef1"/>
<g clip-path="url(#bars)"><rect x="144" y="260" width="119.3" height="12" rx="4" fill="#2a78d6"><animate attributeName="width" values="4;119.3" dur="0.9s" begin="0.08s" fill="freeze" calcMode="spline" keyTimes="0;1" keySplines="0.22 0.9 0.3 1"/></rect></g>
<text x="340" y="270" font-size="12" text-anchor="end" font-weight="600" fill="#0b0b0b" style="font-variant-numeric:tabular-nums">1,614 h</text>
<text x="470" y="270" font-size="11" text-anchor="end" fill="#898781">1,076 commits</text>
<text x="28" y="300" font-size="12" fill="#52514e">Claw For Humanity</text>
<rect x="148" y="290" width="140" height="12" rx="4" fill="#eceef1"/>
<g clip-path="url(#bars)"><rect x="144" y="290" width="54.0" height="12" rx="4" fill="#2a78d6"><animate attributeName="width" values="4;54.0" dur="0.9s" begin="0.16s" fill="freeze" calcMode="spline" keyTimes="0;1" keySplines="0.22 0.9 0.3 1"/></rect></g>
<text x="340" y="300" font-size="12" text-anchor="end" font-weight="600" fill="#0b0b0b" style="font-variant-numeric:tabular-nums">700 h</text>
<text x="470" y="300" font-size="11" text-anchor="end" fill="#898781">467 commits, dormant</text>
<text x="28" y="330" font-size="12" fill="#52514e">Garibaldi-Robotics</text>
<rect x="148" y="320" width="140" height="12" rx="4" fill="#eceef1"/>
<g clip-path="url(#bars)"><rect x="144" y="320" width="35.2" height="12" rx="4" fill="#2a78d6"><animate attributeName="width" values="4;35.2" dur="0.9s" begin="0.24s" fill="freeze" calcMode="spline" keyTimes="0;1" keySplines="0.22 0.9 0.3 1"/></rect></g>
<text x="340" y="330" font-size="12" text-anchor="end" font-weight="600" fill="#0b0b0b" style="font-variant-numeric:tabular-nums">436 h</text>
<text x="470" y="330" font-size="11" text-anchor="end" fill="#898781">291 commits, dormant</text>
<text x="28" y="360" font-size="12" fill="#52514e">Personal</text>
<rect x="148" y="350" width="140" height="12" rx="4" fill="#eceef1"/>
<g clip-path="url(#bars)"><rect x="144" y="350" width="10.3" height="12" rx="4" fill="#2a78d6"><animate attributeName="width" values="4;10.3" dur="0.9s" begin="0.32s" fill="freeze" calcMode="spline" keyTimes="0;1" keySplines="0.22 0.9 0.3 1"/></rect></g>
<text x="340" y="360" font-size="12" text-anchor="end" font-weight="600" fill="#0b0b0b" style="font-variant-numeric:tabular-nums">88 h</text>
<text x="470" y="360" font-size="11" text-anchor="end" fill="#898781">59 commits</text>
<text x="28" y="390" font-size="12" fill="#52514e">Amusely Music</text>
<rect x="148" y="380" width="140" height="12" rx="4" fill="#eceef1"/>
<g clip-path="url(#bars)"><rect x="144" y="380" width="7.1" height="12" rx="4" fill="#2a78d6"><animate attributeName="width" values="4;7.1" dur="0.9s" begin="0.40s" fill="freeze" calcMode="spline" keyTimes="0;1" keySplines="0.22 0.9 0.3 1"/></rect></g>
<text x="340" y="390" font-size="12" text-anchor="end" font-weight="600" fill="#0b0b0b" style="font-variant-numeric:tabular-nums">44 h</text>
<text x="470" y="390" font-size="11" text-anchor="end" fill="#898781">29 commits</text>
<clipPath id="stack"><rect x="512" y="232" width="340" height="22" rx="4"/></clipPath>
<clipPath id="reveal"><rect x="512" y="232" width="340" height="22"><animate attributeName="width" values="0;340" dur="1.0s" begin="0.1s" fill="freeze" calcMode="spline" keyTimes="0;1" keySplines="0.22 0.9 0.3 1"/></rect></clipPath>
<g clip-path="url(#stack)"><g clip-path="url(#reveal)">
<rect x="512.0" y="232" width="150.0" height="22" fill="#2a78d6"/>
<rect x="664.0" y="232" width="101.7" height="22" fill="#eb6834"/>
<rect x="767.7" y="232" width="29.3" height="22" fill="#1baf7a"/>
<rect x="799.0" y="232" width="20.8" height="22" fill="#eda100"/>
<rect x="821.7" y="232" width="8.9" height="22" fill="#e87ba4"/>
<rect x="832.6" y="232" width="17.4" height="22" fill="#898781"/>
</g></g>
<rect x="512" y="271" width="10" height="10" rx="2.5" fill="#2a78d6"/>
<text x="530" y="280" font-size="11.5" fill="#52514e">Python</text>
<text x="800" y="280" font-size="11.5" text-anchor="end" fill="#898781" style="font-variant-numeric:tabular-nums">1,414</text>
<text x="852" y="280" font-size="11.5" text-anchor="end" fill="#52514e" font-weight="600" style="font-variant-numeric:tabular-nums">44.7%</text>
<rect x="512" y="293" width="10" height="10" rx="2.5" fill="#eb6834"/>
<text x="530" y="302" font-size="11.5" fill="#52514e">JavaScript</text>
<text x="800" y="302" font-size="11.5" text-anchor="end" fill="#898781" style="font-variant-numeric:tabular-nums">965</text>
<text x="852" y="302" font-size="11.5" text-anchor="end" fill="#52514e" font-weight="600" style="font-variant-numeric:tabular-nums">30.5%</text>
<rect x="512" y="315" width="10" height="10" rx="2.5" fill="#1baf7a"/>
<text x="530" y="324" font-size="11.5" fill="#52514e">Java</text>
<text x="800" y="324" font-size="11.5" text-anchor="end" fill="#898781" style="font-variant-numeric:tabular-nums">291</text>
<text x="852" y="324" font-size="11.5" text-anchor="end" fill="#52514e" font-weight="600" style="font-variant-numeric:tabular-nums">9.2%</text>
<rect x="512" y="337" width="10" height="10" rx="2.5" fill="#eda100"/>
<text x="530" y="346" font-size="11.5" fill="#52514e">TypeScript</text>
<text x="800" y="346" font-size="11.5" text-anchor="end" fill="#898781" style="font-variant-numeric:tabular-nums">213</text>
<text x="852" y="346" font-size="11.5" text-anchor="end" fill="#52514e" font-weight="600" style="font-variant-numeric:tabular-nums">6.7%</text>
<rect x="512" y="359" width="10" height="10" rx="2.5" fill="#e87ba4"/>
<text x="530" y="368" font-size="11.5" fill="#52514e">CSS</text>
<text x="800" y="368" font-size="11.5" text-anchor="end" fill="#898781" style="font-variant-numeric:tabular-nums">100</text>
<text x="852" y="368" font-size="11.5" text-anchor="end" fill="#52514e" font-weight="600" style="font-variant-numeric:tabular-nums">3.2%</text>
<rect x="512" y="381" width="10" height="10" rx="2.5" fill="#898781"/>
<text x="530" y="390" font-size="11.5" fill="#52514e">Other</text>
<text x="800" y="390" font-size="11.5" text-anchor="end" fill="#898781" style="font-variant-numeric:tabular-nums">181</text>
<text x="852" y="390" font-size="11.5" text-anchor="end" fill="#52514e" font-weight="600" style="font-variant-numeric:tabular-nums">5.7%</text>
<line x1="28" y1="418" x2="852" y2="418" stroke="#e1e0d9"/>
<text x="28" y="448" font-size="13" font-weight="600" fill="#52514e">Contribution rhythm</text>
<text x="28" y="466" font-size="11" fill="#898781">contributions per month · Oct 2025 to Sep 2026 · private included</text>
<text x="512" y="448" font-size="13" font-weight="600" fill="#52514e">Activity shape</text>
<text x="512" y="466" font-size="11" fill="#898781">all-time totals, log scale</text>
<rect x="28" y="558.2" width="28" height="9.8" rx="3" fill="#2a78d6"><animate attributeName="height" values="2;9.8" dur="0.8s" begin="0.00s" fill="freeze" calcMode="spline" keyTimes="0;1" keySplines="0.22 0.9 0.3 1"/></rect>
<text x="42" y="553.2" font-size="9.5" text-anchor="middle" font-weight="400" fill="#898781" style="font-variant-numeric:tabular-nums">88</text>
<text x="42" y="582" font-size="9.5" text-anchor="middle" fill="#898781">Oct</text>
<rect x="65" y="538.9" width="28" height="29.1" rx="3" fill="#2a78d6"><animate attributeName="height" values="2;29.1" dur="0.8s" begin="0.05s" fill="freeze" calcMode="spline" keyTimes="0;1" keySplines="0.22 0.9 0.3 1"/></rect>
<text x="79" y="533.9" font-size="9.5" text-anchor="middle" font-weight="400" fill="#898781" style="font-variant-numeric:tabular-nums">260</text>
<text x="79" y="582" font-size="9.5" text-anchor="middle" fill="#898781">Nov</text>
<rect x="102" y="561.3" width="28" height="6.7" rx="3" fill="#2a78d6"><animate attributeName="height" values="2;6.7" dur="0.8s" begin="0.10s" fill="freeze" calcMode="spline" keyTimes="0;1" keySplines="0.22 0.9 0.3 1"/></rect>
<text x="116" y="556.3" font-size="9.5" text-anchor="middle" font-weight="400" fill="#898781" style="font-variant-numeric:tabular-nums">60</text>
<text x="116" y="582" font-size="9.5" text-anchor="middle" fill="#898781">Dec</text>
<rect x="139" y="547.4" width="28" height="20.6" rx="3" fill="#2a78d6"><animate attributeName="height" values="2;20.6" dur="0.8s" begin="0.15s" fill="freeze" calcMode="spline" keyTimes="0;1" keySplines="0.22 0.9 0.3 1"/></rect>
<text x="153" y="542.4" font-size="9.5" text-anchor="middle" font-weight="400" fill="#898781" style="font-variant-numeric:tabular-nums">184</text>
<text x="153" y="582" font-size="9.5" text-anchor="middle" fill="#898781">Jan</text>
<rect x="176" y="561.1" width="28" height="6.9" rx="3" fill="#2a78d6"><animate attributeName="height" values="2;6.9" dur="0.8s" begin="0.20s" fill="freeze" calcMode="spline" keyTimes="0;1" keySplines="0.22 0.9 0.3 1"/></rect>
<text x="190" y="556.1" font-size="9.5" text-anchor="middle" font-weight="400" fill="#898781" style="font-variant-numeric:tabular-nums">62</text>
<text x="190" y="582" font-size="9.5" text-anchor="middle" fill="#898781">Feb</text>
<rect x="213" y="560.1" width="28" height="7.9" rx="3" fill="#2a78d6"><animate attributeName="height" values="2;7.9" dur="0.8s" begin="0.25s" fill="freeze" calcMode="spline" keyTimes="0;1" keySplines="0.22 0.9 0.3 1"/></rect>
<text x="227" y="555.1" font-size="9.5" text-anchor="middle" font-weight="400" fill="#898781" style="font-variant-numeric:tabular-nums">71</text>
<text x="227" y="582" font-size="9.5" text-anchor="middle" fill="#898781">Mar</text>
<rect x="250" y="562.4" width="28" height="5.6" rx="3" fill="#2a78d6"><animate attributeName="height" values="2;5.6" dur="0.8s" begin="0.30s" fill="freeze" calcMode="spline" keyTimes="0;1" keySplines="0.22 0.9 0.3 1"/></rect>
<text x="264" y="557.4" font-size="9.5" text-anchor="middle" font-weight="400" fill="#898781" style="font-variant-numeric:tabular-nums">50</text>
<text x="264" y="582" font-size="9.5" text-anchor="middle" fill="#898781">Apr</text>
<rect x="287" y="547.3" width="28" height="20.7" rx="3" fill="#2a78d6"><animate attributeName="height" values="2;20.7" dur="0.8s" begin="0.35s" fill="freeze" calcMode="spline" keyTimes="0;1" keySplines="0.22 0.9 0.3 1"/></rect>
<text x="301" y="542.3" font-size="9.5" text-anchor="middle" font-weight="400" fill="#898781" style="font-variant-numeric:tabular-nums">185</text>
<text x="301" y="582" font-size="9.5" text-anchor="middle" fill="#898781">May</text>
<rect x="324" y="542.1" width="28" height="25.9" rx="3" fill="#2a78d6"><animate attributeName="height" values="2;25.9" dur="0.8s" begin="0.40s" fill="freeze" calcMode="spline" keyTimes="0;1" keySplines="0.22 0.9 0.3 1"/></rect>
<text x="338" y="537.1" font-size="9.5" text-anchor="middle" font-weight="400" fill="#898781" style="font-variant-numeric:tabular-nums">232</text>
<text x="338" y="582" font-size="9.5" text-anchor="middle" fill="#898781">Jun</text>
<rect x="361" y="495.8" width="28" height="72.2" rx="3" fill="#2a78d6"><animate attributeName="height" values="2;72.2" dur="0.8s" begin="0.45s" fill="freeze" calcMode="spline" keyTimes="0;1" keySplines="0.22 0.9 0.3 1"/></rect>
<text x="375" y="490.8" font-size="9.5" text-anchor="middle" font-weight="400" fill="#898781" style="font-variant-numeric:tabular-nums">646</text>
<text x="375" y="582" font-size="9.5" text-anchor="middle" fill="#898781">Jul</text>
<rect x="398" y="488.0" width="28" height="80.0" rx="3" fill="#2a78d6"><animate attributeName="height" values="2;80.0" dur="0.8s" begin="0.50s" fill="freeze" calcMode="spline" keyTimes="0;1" keySplines="0.22 0.9 0.3 1"/></rect>
<text x="412" y="483.0" font-size="9.5" text-anchor="middle" font-weight="600" fill="#0b0b0b" style="font-variant-numeric:tabular-nums">716</text>
<text x="412" y="582" font-size="9.5" text-anchor="middle" fill="#898781">Aug</text>
<rect x="435" y="566.0" width="28" height="2.0" rx="3" fill="#2a78d6"><animate attributeName="height" values="2;2.0" dur="0.8s" begin="0.55s" fill="freeze" calcMode="spline" keyTimes="0;1" keySplines="0.22 0.9 0.3 1"/></rect>
<text x="449" y="561.0" font-size="9.5" text-anchor="middle" font-weight="400" fill="#898781" style="font-variant-numeric:tabular-nums">0</text>
<text x="449" y="582" font-size="9.5" text-anchor="middle" fill="#898781">Sep</text>
<line x1="28" y1="568" x2="463" y2="568" stroke="#e1e0d9"/>
<polygon points="682.0,505.8 699.3,518.4 692.7,538.7 671.3,538.7 664.7,518.4" fill="none" stroke="#e1e0d9" stroke-dasharray="2 3"/>
<polygon points="682.0,488.9 715.4,513.2 702.6,552.4 661.4,552.4 648.6,513.2" fill="none" stroke="#e1e0d9" stroke-dasharray="2 3"/>
<polygon points="682.0,471.5 731.9,507.8 712.9,566.5 651.1,566.5 632.1,507.8" fill="none" stroke="#e1e0d9" stroke-dasharray="2 3"/>
<polygon points="682.0,454.0 748.6,502.4 723.1,580.6 640.9,580.6 615.4,502.4" fill="none" stroke="#e1e0d9" stroke-dasharray="2 3"/>
<line x1="682" y1="524" x2="682.0" y2="454.0" stroke="#e1e0d9"/>
<line x1="682" y1="524" x2="748.6" y2="502.4" stroke="#e1e0d9"/>
<line x1="682" y1="524" x2="723.1" y2="580.6" stroke="#e1e0d9"/>
<line x1="682" y1="524" x2="640.9" y2="580.6" stroke="#e1e0d9"/>
<line x1="682" y1="524" x2="615.4" y2="502.4" stroke="#e1e0d9"/>
<polygon points="682.0,462.6 719.0,512.0 703.0,553.0 661.6,552.1 662.4,517.6" fill="#2a78d6" fill-opacity="0.22" stroke="#2a78d6" stroke-width="2" stroke-linejoin="round"/>
<text x="682" y="430" font-size="10.5" text-anchor="middle" fill="#898781">Commits</text>
<text x="682" y="443" font-size="12" text-anchor="middle" font-weight="600" fill="#0b0b0b" style="font-variant-numeric:tabular-nums">3,229</text>
<text x="768" y="496" font-size="10.5" text-anchor="start" fill="#898781">Pull requests</text>
<text x="768" y="509" font-size="12" text-anchor="start" font-weight="600" fill="#0b0b0b" style="font-variant-numeric:tabular-nums">165</text>
<text x="735" y="607" font-size="10.5" text-anchor="start" fill="#898781">Merged</text>
<text x="735" y="620" font-size="12" text-anchor="start" font-weight="600" fill="#0b0b0b" style="font-variant-numeric:tabular-nums">110</text>
<text x="629" y="607" font-size="10.5" text-anchor="end" fill="#898781">Repos</text>
<text x="629" y="620" font-size="12" text-anchor="end" font-weight="600" fill="#0b0b0b" style="font-variant-numeric:tabular-nums">95</text>
<text x="596" y="496" font-size="10.5" text-anchor="end" fill="#898781">Issues</text>
<text x="596" y="509" font-size="12" text-anchor="end" font-weight="600" fill="#0b0b0b" style="font-variant-numeric:tabular-nums">14</text>
<line x1="28" y1="640" x2="852" y2="640" stroke="#e1e0d9"/>
<text x="28" y="666" font-size="11.5" fill="#898781">2,555 contributions in the last year · 163 active days · peak 106 in a day</text>
<text x="852" y="666" font-size="11.5" text-anchor="end" fill="#898781">private repos aggregated by account</text>
</svg>